<?xml version="1.0" encoding="UTF-8" standalone="no"?>
<svg
   xmlns:dc="http://purl.org/dc/elements/1.1/"
   xmlns:cc="http://creativecommons.org/ns#"
   xmlns:rdf="http://www.w3.org/1999/02/22-rdf-syntax-ns#"
   xmlns:svg="http://www.w3.org/2000/svg"
   xmlns="http://www.w3.org/2000/svg"
   xmlns:sodipodi="http://sodipodi.sourceforge.net/DTD/sodipodi-0.dtd"
   xmlns:inkscape="http://www.inkscape.org/namespaces/inkscape"
   width="13"
   height="13"
   version="1.0"
   id="svg4"
   sodipodi:docname="(at).svg"
   inkscape:version="0.92.4 (5da689c313, 2019-01-14)">
  <metadata
     id="metadata10">
    <rdf:RDF>
      <cc:Work
         rdf:about="">
        <dc:format>image/svg+xml</dc:format>
        <dc:type
           rdf:resource="http://purl.org/dc/dcmitype/StillImage" />
      </cc:Work>
    </rdf:RDF>
  </metadata>
  <defs
     id="defs8" />
  <sodipodi:namedview
     pagecolor="#ffffff"
     bordercolor="#666666"
     borderopacity="1"
     objecttolerance="10"
     gridtolerance="10"
     guidetolerance="10"
     inkscape:pageopacity="0"
     inkscape:pageshadow="2"
     inkscape:window-width="1858"
     inkscape:window-height="1057"
     id="namedview6"
     showgrid="false"
     inkscape:zoom="25.673415"
     inkscape:cx="6.5"
     inkscape:cy="6.5"
     inkscape:window-x="54"
     inkscape:window-y="-8"
     inkscape:window-maximized="1"
     inkscape:current-layer="svg4" />
  <path
     id="path817"
     d="M 11.225,10.348 C 7.203,13.495 1.374,12.036 1.185,6.700 C 1.727,-2.521 15.102,0.711 11.190,8.402 C 10.342,9.363 9.523,9.577 8.619,8.750 C 8.450,8.595 8.259,7.818 8.312,7.537 C 8.600,6.014 9.187,4.259 7.732,3.740 C 5.789,3.045 4.067,5.066 3.737,6.971 C 3.356,9.169 5.573,9.684 7.072,8.569 C 7.438,8.277 8.393,7.460 8.423,6.982"
     style="fill:none;stroke:#ffffff;stroke-width:1.5;stroke-linecap:round;stroke-linejoin:round;stroke-opacity:1;stroke-miterlimit:4;stroke-dasharray:none" />
  <path
     style="fill:none;stroke:#000;stroke-width:1.2;stroke-linecap:round;stroke-linejoin:round;"
     d="M 11.225,10.348 C 7.203,13.495 1.374,12.036 1.185,6.700 C 1.727,-2.521 15.102,0.711 11.190,8.402 C 10.342,9.363 9.523,9.577 8.619,8.750 C 8.450,8.595 8.259,7.818 8.312,7.537 C 8.600,6.014 9.187,4.259 7.732,3.740 C 5.789,3.045 4.067,5.066 3.737,6.971 C 3.356,9.169 5.573,9.684 7.072,8.569 C 7.438,8.277 8.393,7.460 8.423,6.982"
     id="path2" />
</svg>
