<?xml version="1.0" encoding="UTF-8" standalone="no"?>
<svg
   xmlns:dc="http://purl.org/dc/elements/1.1/"
   xmlns:cc="http://creativecommons.org/ns#"
   xmlns:rdf="http://www.w3.org/1999/02/22-rdf-syntax-ns#"
   xmlns:svg="http://www.w3.org/2000/svg"
   xmlns="http://www.w3.org/2000/svg"
   xmlns:sodipodi="http://sodipodi.sourceforge.net/DTD/sodipodi-0.dtd"
   xmlns:inkscape="http://www.inkscape.org/namespaces/inkscape"
   width="1046.1027"
   height="1043.6887"
   viewBox="0 0 1046.1027 1043.6887"
   version="1.1"
   id="svg4"
   sodipodi:docname="Octicons-mark-white github.svg"
   inkscape:version="0.92.4 (5da689c313, 2019-01-14)"
   style="fill:none">
  <metadata
     id="metadata10">
    <rdf:RDF>
      <cc:Work
         rdf:about="">
        <dc:format>image/svg+xml</dc:format>
        <dc:type
           rdf:resource="http://purl.org/dc/dcmitype/StillImage" />
        <dc:title></dc:title>
      </cc:Work>
    </rdf:RDF>
  </metadata>
  <defs
     id="defs8" />
  <sodipodi:namedview
     pagecolor="#ffffff"
     bordercolor="#666666"
     borderopacity="1"
     objecttolerance="10"
     gridtolerance="10"
     guidetolerance="10"
     inkscape:pageopacity="0"
     inkscape:pageshadow="2"
     inkscape:window-width="1469"
     inkscape:window-height="646"
     id="namedview6"
     showgrid="false"
     inkscape:zoom="0.23046875"
     inkscape:cx="524.0545"
     inkscape:cy="524.27246"
     inkscape:window-x="321"
     inkscape:window-y="36"
     inkscape:window-maximized="0"
     inkscape:current-layer="svg4" />
  <path
     style="display:inline;opacity:1;vector-effect:none;fill:#ffffff;fill-opacity:1;fill-rule:nonzero;stroke:none;stroke-width:17.96306419;stroke-linecap:round;stroke-linejoin:round;stroke-miterlimit:4;stroke-dasharray:none;stroke-dashoffset:0;stroke-opacity:1;paint-order:fill markers stroke"
     id="path817"
     sodipodi:type="arc"
     sodipodi:cx="523.05133"
     sodipodi:cy="521.84436"
     sodipodi:rx="523.05133"
     sodipodi:ry="521.84436"
     sodipodi:start="6.2115744"
     sodipodi:end="6.2090878"
     sodipodi:open="true"
     d="M 1044.7621,484.50654 A 523.05133,521.84436 0 0 1 560.79982,1042.3279 523.05133,521.84436 0 0 1 1.3874952,559.82929 523.05133,521.84436 0 0 1 484.65426,1.4080074 523.05133,521.84436 0 0 1 1044.6674,483.21237" />
  <path
     d="m 524.05451,7.4162598 c -282.88,0 -512.000006,229.1200002 -512.000006,512.0000002 0,226.56 146.560006,417.92 350.080006,485.76004 25.6,4.48 35.2,-10.88004 35.2,-24.32004 0,-12.16 -0.64,-52.48 -0.64,-95.36 -128.64,23.68 -161.92,-31.36 -172.16,-60.16 -5.76,-14.72 -30.72,-60.16 -52.48,-72.32 -17.92,-9.6 -43.52,-33.28 -0.64,-33.92 40.32,-0.64 69.12,37.12 78.72,52.48 46.08,77.44 119.68,55.68 149.12,42.24 4.48,-33.28 17.92,-55.68 32.64,-68.48 -113.92,-12.8 -232.96,-56.96 -232.96,-252.8 0,-55.68 19.84,-101.76 52.48,-137.6 -5.12,-12.8 -23.04,-65.28 5.12,-135.68 0,0 42.88,-13.44 140.8,52.48 40.96,-11.52 84.48,-17.28 128,-17.28 43.52,0 87.04,5.76 128,17.28 97.92,-66.56 140.8,-52.48 140.8,-52.48 28.16,70.4 10.24,122.88 5.12,135.68 32.64,35.84 52.48,81.28 52.48,137.6 0,196.48 -119.68,240 -233.6,252.8 18.56,16 34.56,46.72 34.56,94.72 0,68.48 -0.64,123.52 -0.64,140.8 0,13.44 9.6,29.44004 35.2,24.32004 202.24,-67.84004 348.79999,-259.84004 348.79999,-485.76004 0,-282.88 -229.11999,-512.0000002 -511.99999,-512.0000002 z"
     id="path2"
     inkscape:connector-curvature="0"
     style="clip-rule:evenodd;display:inline;fill:#1b1f23;fill-rule:evenodd;stroke-width:64"
     sodipodi:insensitive="true" />
</svg>
